ply
format ascii 1.0
comment Created by Blender 2.79 (sub 0) - www.blender.org, source file: 'palmtree.blend'
element vertex 482
property float x
property float y
property float z
property float nx
property float ny
property float nz
element face 960
property list uchar uint vertex_indices
end_header
-0.015704 -0.008086 -0.727714 0.000000 0.000000 -1.000000
-0.015704 0.030932 -0.713303 0.000000 0.568834 -0.822443
0.012841 0.030183 -0.713303 0.028840 0.562212 -0.826472
-0.015704 0.188071 -0.124032 0.000000 0.998566 -0.053407
-0.015704 0.191914 0.022286 0.000000 1.000000 0.000000
0.130614 0.188071 0.022286 0.053743 0.998535 0.000000
0.127802 0.184302 -0.124032 0.053682 0.997070 -0.054415
-0.015704 0.068451 0.715195 0.000000 0.830500 0.556963
-0.015704 0.030932 0.757875 0.000000 0.568834 0.822443
0.012841 0.030183 0.757875 0.028840 0.562212 0.826472
0.040290 0.066980 0.715195 0.044435 0.824488 0.564104
-0.015704 0.176690 -0.264727 0.000000 0.993835 -0.110843
0.119476 0.173140 -0.264727 0.053438 0.992157 -0.112918
-0.015704 0.103028 0.645888 0.000000 0.925657 0.378338
0.065586 0.100893 0.645888 0.049837 0.921751 0.384503
-0.015704 0.158208 -0.394392 0.000000 0.984100 -0.177435
0.105955 0.155013 -0.394392 0.052950 0.982086 -0.180700
-0.015704 0.133336 0.552616 0.000000 0.965178 0.261513
0.087758 0.130618 0.552616 0.051973 0.962523 0.266121
-0.015704 0.133336 -0.508044 0.000000 0.965178 -0.261513
0.087758 0.130618 -0.508044 0.051973 0.962523 -0.266121
-0.015704 0.158208 0.438963 0.000000 0.984100 0.177435
0.105955 0.155013 0.438963 0.052950 0.982086 0.180700
-0.015704 0.103028 -0.601316 0.000000 0.925657 -0.378307
0.065586 0.100893 -0.601316 0.049837 0.921751 -0.384503
-0.015704 0.176690 0.309298 0.000000 0.993835 0.110843
0.119476 0.173140 0.309298 0.053438 0.992157 0.112918
-0.015704 0.068451 -0.670624 0.000000 0.830500 -0.556963
0.040290 0.066980 -0.670624 0.044435 0.824488 -0.564104
-0.015704 0.188071 0.168604 0.000000 0.998566 0.053407
0.127802 0.184302 0.168604 0.053682 0.997070 0.054415
-0.015704 -0.008086 0.772286 0.000000 0.000000 1.000000
0.094131 0.062625 -0.670624 0.090030 0.805628 -0.585528
0.040290 0.027962 -0.713303 0.057802 0.542131 -0.838282
0.265794 0.173140 0.168604 0.111393 0.992096 0.057619
0.271309 0.176690 0.022286 0.111576 0.993744 0.000000
0.040290 0.027962 0.757875 0.057802 0.542161 0.838252
0.265794 0.173140 -0.124032 0.111393 0.992096 -0.057619
0.094131 0.062625 0.715195 0.090030 0.805628 0.585528
0.249461 0.162625 -0.264727 0.110843 0.986602 -0.119480
0.143752 0.094570 0.645888 0.102268 0.909177 0.403577
0.222938 0.145550 -0.394392 0.109653 0.975433 -0.191015
0.187245 0.122571 0.552616 0.107303 0.953764 0.280679
0.187245 0.122571 -0.508044 0.107303 0.953764 -0.280679
0.222938 0.145550 0.438963 0.109653 0.975433 0.191015
0.143752 0.094570 -0.601316 0.102268 0.909177 -0.403577
0.249461 0.162625 0.309298 0.110843 0.986602 0.119480
0.215790 0.084302 0.645888 0.160436 0.884701 0.437666
0.278932 0.109502 0.552616 0.170110 0.936216 0.307382
0.330751 0.130183 -0.394392 0.174810 0.961882 -0.210181
0.278932 0.109502 -0.508044 0.170110 0.936216 -0.307413
0.330751 0.130183 0.438963 0.174810 0.961882 0.210181
0.215790 0.084302 -0.601316 0.160436 0.884701 -0.437635
0.369256 0.145550 0.309298 0.177190 0.975280 0.131809
0.143752 0.055552 -0.670624 0.138493 0.770898 -0.621693
0.392968 0.155013 0.168604 0.178350 0.981872 0.063631
0.065586 0.024357 -0.713303 0.087130 0.507370 -0.857265
0.400974 0.158208 0.022286 0.178716 0.983886 0.000000
0.065586 0.024357 0.757875 0.087130 0.507370 0.857265
0.392968 0.155013 -0.124032 0.178350 0.981872 -0.063631
0.143752 0.055552 0.715195 0.138493 0.770898 0.621693
0.369256 0.145550 -0.264727 0.177190 0.975280 -0.131809
0.504436 0.130618 0.168604 0.262886 0.961974 0.073855
0.514626 0.133336 0.022286 0.263588 0.964599 0.000000
0.087759 0.019504 0.757875 0.116703 0.455519 0.882534
0.087758 0.019504 -0.713303 0.116703 0.455489 -0.882534
0.504436 0.130618 -0.124032 0.262886 0.961974 -0.073824
0.187245 0.046034 0.715195 0.191412 0.713920 0.673544
0.474257 0.122571 -0.264727 0.260475 0.953337 -0.152562
0.278932 0.070484 0.645888 0.228431 0.840968 0.490432
0.425250 0.109502 -0.394392 0.255623 0.935972 -0.242042
0.359296 0.091914 0.552616 0.246406 0.903470 0.350688
0.359296 0.091914 -0.508044 0.246406 0.903470 -0.350688
0.425250 0.109502 0.438963 0.255623 0.935972 0.242042
0.278932 0.070484 -0.601316 0.228431 0.840999 -0.490432
0.474257 0.122571 0.309298 0.260475 0.953337 0.152562
0.187245 0.046034 -0.670624 0.191412 0.713889 -0.673544
0.502803 0.084302 -0.394392 0.364147 0.883816 -0.293680
0.425250 0.070484 -0.508044 0.345012 0.840419 -0.417890
0.425250 0.070484 0.552616 0.345012 0.840419 0.417890
0.502803 0.084302 0.438963 0.364147 0.883816 0.293680
0.330751 0.053646 -0.601316 0.310831 0.763054 -0.566637
0.560430 0.094570 0.309298 0.374767 0.908048 0.186987
0.222938 0.034436 -0.670624 0.249611 0.623981 -0.740471
0.595916 0.100893 0.168604 0.380169 0.920408 0.090976
0.105955 0.013592 -0.713303 0.146092 0.383312 -0.911954
0.607898 0.103028 0.022286 0.381817 0.924223 0.000000
0.105955 0.013592 0.757875 0.146092 0.383312 0.911954
0.595916 0.100893 -0.124032 0.380169 0.920408 -0.090976
0.222939 0.034436 0.715195 0.249611 0.623981 0.740471
0.560430 0.094570 -0.264727 0.374767 0.908048 -0.186987
0.330751 0.053646 0.645888 0.310800 0.763054 0.566637
0.119476 0.006846 -0.713303 0.174718 0.286782 -0.941893
0.677206 0.068451 0.022286 0.562670 0.826655 0.000000
0.663892 0.066980 -0.124032 0.558275 0.820887 -0.120182
0.119476 0.006846 0.757875 0.174718 0.286813 0.941893
0.249461 0.021204 0.715195 0.311838 0.485336 0.816797
0.624461 0.062625 -0.264727 0.544389 0.802484 -0.244209
0.369256 0.034436 0.645888 0.410169 0.622150 0.666829
0.560430 0.055552 -0.394392 0.518509 0.768151 -0.375561
0.474257 0.046034 0.552616 0.476119 0.711539 0.516709
0.474257 0.046034 -0.508044 0.476119 0.711509 -0.516709
0.560430 0.055552 0.438963 0.518509 0.768151 0.375561
0.369256 0.034436 -0.601316 0.410169 0.622150 -0.666829
0.624461 0.062625 0.309298 0.544389 0.802484 0.244209
0.249461 0.021204 -0.670624 0.311838 0.485336 -0.816797
0.663892 0.066980 0.168604 0.558275 0.820887 0.120182
0.504436 0.019504 -0.508044 0.631214 0.445814 -0.634663
0.392968 0.013592 -0.601316 0.515244 0.373730 -0.771233
0.595916 0.024357 0.438963 0.719230 0.497940 0.484481
0.663892 0.027962 0.309298 0.780602 0.532975 0.326426
0.265794 0.006846 -0.670624 0.371105 0.278817 -0.885708
0.705751 0.030183 0.168604 0.816736 0.553117 0.164098
0.127802 -0.000474 -0.713303 0.201483 0.160436 -0.966247
0.719885 0.030932 0.022286 0.828669 0.559679 0.000000
0.127803 -0.000474 0.757875 0.201483 0.160436 0.966247
0.705751 0.030183 -0.124032 0.816736 0.553117 -0.164098
0.265794 0.006846 0.715195 0.371105 0.278817 0.885708
0.663892 0.027962 -0.264727 0.780602 0.532975 -0.326426
0.392968 0.013592 0.645888 0.515244 0.373730 0.771233
0.595916 0.024357 -0.394392 0.719230 0.497940 -0.484481
0.504436 0.019504 0.552616 0.631214 0.445814 0.634663
0.130614 -0.008086 0.757875 0.216102 0.000000 0.976348
0.271309 -0.008086 0.715195 0.401135 0.000000 0.915983
0.719885 -0.008086 -0.124032 0.981567 0.000000 -0.191046
0.677206 -0.008086 -0.264727 0.926908 0.000000 -0.375195
0.400974 -0.008086 0.645888 0.570360 0.000000 0.821375
0.607898 -0.008086 -0.394392 0.837947 0.000000 -0.545732
0.514626 -0.008086 0.552616 0.717673 0.000000 0.696341
0.514626 -0.008086 -0.508044 0.717673 0.000000 -0.696341
0.607898 -0.008086 0.438963 0.837947 0.000000 0.545732
0.400974 -0.008086 -0.601316 0.570360 0.000000 -0.821375
0.677206 -0.008086 0.309298 0.926908 0.000000 0.375225
0.271309 -0.008086 -0.670624 0.401135 0.000000 -0.915983
0.719885 -0.008086 0.168604 0.981567 0.000000 0.191046
0.130614 -0.008086 -0.713303 0.216102 0.000000 -0.976348
0.734296 -0.008086 0.022286 0.999969 0.000000 0.000000
0.595916 -0.040528 0.438963 0.719230 -0.497940 0.484481
0.663892 -0.044134 0.309298 0.780602 -0.532975 0.326426
0.392968 -0.029763 -0.601316 0.515244 -0.373730 -0.771233
0.265794 -0.023017 -0.670624 0.371105 -0.278817 -0.885708
0.705751 -0.046354 0.168604 0.816767 -0.553117 0.164098
0.127802 -0.015698 -0.713303 0.201483 -0.160466 -0.966247
0.719885 -0.047104 0.022286 0.828669 -0.559679 0.000000
0.127803 -0.015698 0.757875 0.201483 -0.160466 0.966247
0.705751 -0.046354 -0.124032 0.816767 -0.553117 -0.164098
0.265794 -0.023017 0.715195 0.371105 -0.278817 0.885708
0.663892 -0.044134 -0.264727 0.780602 -0.532975 -0.326426
0.392968 -0.029763 0.645888 0.515244 -0.373730 0.771233
0.595916 -0.040528 -0.394392 0.719230 -0.497940 -0.484481
0.504436 -0.035676 0.552616 0.631184 -0.445814 0.634663
0.504436 -0.035676 -0.508044 0.631184 -0.445814 -0.634663
0.663892 -0.083152 -0.124032 0.558275 -0.820856 -0.120182
0.624461 -0.078796 -0.264727 0.544359 -0.802484 -0.244209
0.249461 -0.037375 0.715195 0.311838 -0.485336 0.816797
0.369256 -0.050607 0.645888 0.410169 -0.622150 0.666829
0.560429 -0.071724 -0.394392 0.518509 -0.768151 -0.375561
0.474257 -0.062205 0.552616 0.476119 -0.711539 0.516709
0.474257 -0.062205 -0.508044 0.476119 -0.711539 -0.516709
0.560429 -0.071724 0.438963 0.518509 -0.768151 0.375561
0.369256 -0.050607 -0.601316 0.410169 -0.622150 -0.666829
0.624461 -0.078796 0.309298 0.544359 -0.802484 0.244209
0.249461 -0.037375 -0.670624 0.311838 -0.485336 -0.816797
0.663892 -0.083152 0.168604 0.558275 -0.820856 0.120182
0.119476 -0.023017 -0.713303 0.174718 -0.286813 -0.941893
0.677206 -0.084622 0.022286 0.562670 -0.826655 0.000000
0.119476 -0.023017 0.757875 0.174718 -0.286813 0.941893
0.330751 -0.069817 -0.601316 0.310831 -0.763054 -0.566637
0.222938 -0.050607 -0.670624 0.249611 -0.623981 -0.740471
0.560429 -0.110742 0.309298 0.374767 -0.908048 0.186987
0.595916 -0.117065 0.168604 0.380169 -0.920408 0.090976
0.105955 -0.029763 -0.713303 0.146123 -0.383312 -0.911954
0.607898 -0.119200 0.022286 0.381817 -0.924223 0.000000
0.105955 -0.029763 0.757875 0.146123 -0.383282 0.911985
0.595916 -0.117065 -0.124032 0.380169 -0.920408 -0.090976
0.222939 -0.050607 0.715195 0.249611 -0.623981 0.740471
0.560429 -0.110742 -0.264727 0.374767 -0.908048 -0.186987
0.330751 -0.069817 0.645888 0.310831 -0.763054 0.566637
0.502802 -0.100474 -0.394392 0.364147 -0.883816 -0.293680
0.425250 -0.086655 0.552616 0.345012 -0.840419 0.417890
0.425250 -0.086655 -0.508044 0.345012 -0.840419 -0.417890
0.502802 -0.100474 0.438963 0.364147 -0.883816 0.293680
0.187245 -0.062205 0.715195 0.191412 -0.713889 0.673544
0.278932 -0.086655 0.645888 0.228431 -0.840968 0.490432
0.474257 -0.138742 -0.264727 0.260475 -0.953337 -0.152562
0.425249 -0.125673 -0.394392 0.255623 -0.935972 -0.242042
0.359296 -0.108086 0.552616 0.246406 -0.903470 0.350688
0.359296 -0.108086 -0.508044 0.246406 -0.903470 -0.350688
0.425249 -0.125673 0.438963 0.255623 -0.935972 0.242042
0.278932 -0.086655 -0.601316 0.228431 -0.840968 -0.490432
0.474257 -0.138742 0.309298 0.260475 -0.953337 0.152562
0.187245 -0.062205 -0.670624 0.191412 -0.713889 -0.673544
0.504436 -0.146790 0.168604 0.262856 -0.961974 0.073824
0.087758 -0.035676 -0.713303 0.116703 -0.455519 -0.882534
0.514626 -0.149507 0.022286 0.263588 -0.964629 0.000000
0.087759 -0.035676 0.757875 0.116703 -0.455519 0.882504
0.504436 -0.146790 -0.124032 0.262856 -0.961974 -0.073855
0.369256 -0.161721 0.309298 0.177190 -0.975280 0.131809
0.392967 -0.171184 0.168604 0.178350 -0.981872 0.063631
0.143752 -0.071724 -0.670624 0.138493 -0.770867 -0.621693
0.065586 -0.040528 -0.713303 0.087130 -0.507370 -0.857295
0.400974 -0.174380 0.022286 0.178716 -0.983886 0.000000
0.065586 -0.040528 0.757875 0.087130 -0.507370 0.857295
0.392967 -0.171184 -0.124032 0.178350 -0.981872 -0.063662
0.143752 -0.071724 0.715195 0.138493 -0.770898 0.621693
0.369256 -0.161721 -0.264727 0.177190 -0.975280 -0.131809
0.215790 -0.100474 0.645888 0.160466 -0.884701 0.437666
0.330751 -0.146354 -0.394392 0.174810 -0.961882 -0.210181
0.278932 -0.125673 0.552616 0.170110 -0.936216 0.307382
0.278932 -0.125673 -0.508044 0.170110 -0.936216 -0.307382
0.330751 -0.146354 0.438963 0.174810 -0.961882 0.210181
0.215790 -0.100474 -0.601316 0.160466 -0.884701 -0.437635
0.249461 -0.178796 -0.264727 0.110843 -0.986602 -0.119480
0.222938 -0.161721 -0.394392 0.109653 -0.975433 -0.191015
0.143752 -0.110742 0.645888 0.102268 -0.909177 0.403577
0.187245 -0.138742 0.552616 0.107303 -0.953764 0.280679
0.187245 -0.138742 -0.508044 0.107303 -0.953764 -0.280679
0.222938 -0.161721 0.438963 0.109653 -0.975433 0.191015
0.143752 -0.110742 -0.601316 0.102268 -0.909177 -0.403577
0.249461 -0.178796 0.309298 0.110843 -0.986602 0.119480
0.094131 -0.078796 -0.670624 0.090030 -0.805628 -0.585528
0.265794 -0.189311 0.168604 0.111393 -0.992096 0.057619
0.040289 -0.044134 -0.713303 0.057802 -0.542161 -0.838252
0.271309 -0.192862 0.022286 0.111576 -0.993744 0.000000
0.040290 -0.044134 0.757875 0.057802 -0.542161 0.838252
0.265794 -0.189311 -0.124032 0.111393 -0.992096 -0.057619
0.094131 -0.078796 0.715195 0.090030 -0.805628 0.585528
0.040289 -0.083152 -0.670624 0.044435 -0.824458 -0.564104
0.012841 -0.046354 -0.713303 0.028840 -0.562212 -0.826472
0.127802 -0.200474 0.168604 0.053682 -0.997070 0.054415
0.130614 -0.204243 0.022286 0.053743 -0.998535 0.000000
0.012841 -0.046354 0.757875 0.028840 -0.562212 0.826472
0.127802 -0.200474 -0.124032 0.053682 -0.997070 -0.054415
0.040290 -0.083152 0.715195 0.044435 -0.824458 0.564104
0.119476 -0.189311 -0.264727 0.053438 -0.992157 -0.112918
0.065586 -0.117065 0.645888 0.049837 -0.921751 0.384503
0.105955 -0.171184 -0.394392 0.052950 -0.982086 -0.180700
0.087758 -0.146790 0.552616 0.051973 -0.962523 0.266121
0.087758 -0.146790 -0.508044 0.051973 -0.962523 -0.266121
0.105955 -0.171184 0.438963 0.052950 -0.982086 0.180700
0.065586 -0.117065 -0.601316 0.049837 -0.921751 -0.384503
0.119476 -0.189311 0.309298 0.053438 -0.992157 0.112918
-0.015704 -0.174380 -0.394392 0.000000 -0.984100 -0.177435
-0.015704 -0.149507 -0.508044 0.000000 -0.965178 -0.261513
-0.015704 -0.149507 0.552616 0.000000 -0.965178 0.261513
-0.015704 -0.174380 0.438963 0.000000 -0.984100 0.177435
-0.015704 -0.119200 -0.601316 0.000000 -0.925657 -0.378307
-0.015704 -0.192862 0.309298 0.000000 -0.993835 0.110843
-0.015704 -0.084622 -0.670624 0.000000 -0.830500 -0.556963
-0.015704 -0.204243 0.168604 0.000000 -0.998566 0.053438
-0.015704 -0.047104 -0.713303 0.000000 -0.568834 -0.822443
-0.015704 -0.208086 0.022286 0.000000 -1.000000 0.000000
-0.015704 -0.047104 0.757875 0.000000 -0.568834 0.822413
-0.015704 -0.204243 -0.124032 0.000000 -0.998566 -0.053438
-0.015704 -0.084622 0.715195 0.000000 -0.830500 0.556963
-0.015704 -0.192862 -0.264727 0.000000 -0.993835 -0.110843
-0.015704 -0.119200 0.645888 0.000000 -0.925657 0.378338
-0.044249 -0.046354 0.757875 -0.028840 -0.562212 0.826472
-0.044249 -0.046354 -0.713303 -0.028840 -0.562212 -0.826472
-0.162022 -0.204243 0.022286 -0.053743 -0.998535 0.000000
-0.159210 -0.200474 -0.124032 -0.053682 -0.997070 -0.054415
-0.071697 -0.083152 0.715195 -0.044435 -0.824488 0.564104
-0.150884 -0.189311 -0.264727 -0.053438 -0.992157 -0.112918
-0.096994 -0.117065 0.645888 -0.049837 -0.921751 0.384503
-0.137363 -0.171184 -0.394392 -0.052950 -0.982086 -0.180700
-0.119166 -0.146790 0.552616 -0.051973 -0.962523 0.266121
-0.119166 -0.146790 -0.508044 -0.051973 -0.962523 -0.266121
-0.137363 -0.171184 0.438963 -0.052950 -0.982086 0.180700
-0.096994 -0.117065 -0.601316 -0.049837 -0.921751 -0.384503
-0.150884 -0.189311 0.309298 -0.053438 -0.992157 0.112918
-0.071697 -0.083152 -0.670624 -0.044435 -0.824458 -0.564104
-0.159210 -0.200474 0.168604 -0.053682 -0.997070 0.054415
-0.218652 -0.138742 0.552616 -0.107303 -0.953764 0.280679
-0.254346 -0.161721 0.438963 -0.109653 -0.975433 0.191015
-0.218652 -0.138742 -0.508044 -0.107303 -0.953764 -0.280679
-0.175160 -0.110742 -0.601316 -0.102268 -0.909177 -0.403577
-0.280869 -0.178796 0.309298 -0.110843 -0.986602 0.119480
-0.125539 -0.078796 -0.670624 -0.090030 -0.805628 -0.585528
-0.297202 -0.189311 0.168604 -0.111393 -0.992096 0.057619
-0.071697 -0.044134 -0.713303 -0.057802 -0.542161 -0.838252
-0.302717 -0.192862 0.022286 -0.111576 -0.993744 0.000000
-0.071697 -0.044134 0.757875 -0.057802 -0.542161 0.838252
-0.297202 -0.189311 -0.124032 -0.111393 -0.992096 -0.057619
-0.125539 -0.078796 0.715195 -0.090030 -0.805628 0.585528
-0.280869 -0.178796 -0.264727 -0.110843 -0.986602 -0.119480
-0.175160 -0.110742 0.645888 -0.102268 -0.909177 0.403577
-0.254346 -0.161721 -0.394392 -0.109653 -0.975433 -0.191015
-0.432382 -0.174380 0.022286 -0.178716 -0.983886 0.000000
-0.424375 -0.171184 -0.124032 -0.178350 -0.981872 -0.063631
-0.096994 -0.040528 0.757875 -0.087130 -0.507370 0.857265
-0.175160 -0.071724 0.715195 -0.138493 -0.770867 0.621693
-0.400664 -0.161721 -0.264727 -0.177190 -0.975280 -0.131809
-0.247198 -0.100474 0.645888 -0.160466 -0.884701 0.437666
-0.362159 -0.146354 -0.394392 -0.174810 -0.961882 -0.210181
-0.310339 -0.125673 0.552616 -0.170110 -0.936216 0.307382
-0.310339 -0.125673 -0.508044 -0.170110 -0.936216 -0.307382
-0.362159 -0.146354 0.438963 -0.174810 -0.961882 0.210181
-0.247198 -0.100474 -0.601316 -0.160466 -0.884701 -0.437635
-0.400664 -0.161721 0.309298 -0.177190 -0.975280 0.131809
-0.175159 -0.071724 -0.670624 -0.138493 -0.770867 -0.621693
-0.424375 -0.171184 0.168604 -0.178350 -0.981872 0.063662
-0.096994 -0.040528 -0.713303 -0.087130 -0.507370 -0.857295
-0.390704 -0.108086 -0.508044 -0.246406 -0.903470 -0.350688
-0.310339 -0.086655 -0.601316 -0.228431 -0.840968 -0.490432
-0.456657 -0.125673 0.438963 -0.255623 -0.935972 0.242042
-0.505665 -0.138742 0.309298 -0.260475 -0.953337 0.152562
-0.218652 -0.062205 -0.670624 -0.191412 -0.713889 -0.673544
-0.535844 -0.146790 0.168604 -0.262856 -0.961974 0.073855
-0.119166 -0.035676 -0.713303 -0.116703 -0.455519 -0.882534
-0.546034 -0.149507 0.022286 -0.263588 -0.964629 0.000000
-0.119166 -0.035676 0.757875 -0.116703 -0.455519 0.882534
-0.535844 -0.146790 -0.124032 -0.262856 -0.961974 -0.073824
-0.218652 -0.062205 0.715195 -0.191412 -0.713889 0.673544
-0.505665 -0.138742 -0.264727 -0.260475 -0.953337 -0.152562
-0.310340 -0.086655 0.645888 -0.228431 -0.840968 0.490432
-0.456657 -0.125673 -0.394392 -0.255623 -0.935972 -0.242042
-0.390704 -0.108086 0.552616 -0.246406 -0.903470 0.350688
-0.137363 -0.029763 0.757875 -0.146123 -0.383312 0.911954
-0.254346 -0.050607 0.715195 -0.249611 -0.623981 0.740471
-0.627324 -0.117065 -0.124032 -0.380169 -0.920408 -0.090976
-0.591837 -0.110742 -0.264727 -0.374767 -0.908048 -0.186987
-0.362159 -0.069817 0.645888 -0.310831 -0.763054 0.566637
-0.534210 -0.100474 -0.394392 -0.364147 -0.883816 -0.293680
-0.456657 -0.086655 0.552616 -0.345012 -0.840419 0.417890
-0.456657 -0.086655 -0.508044 -0.345012 -0.840419 -0.417890
-0.534210 -0.100474 0.438963 -0.364147 -0.883816 0.293680
-0.362159 -0.069817 -0.601316 -0.310800 -0.763054 -0.566637
-0.591837 -0.110742 0.309298 -0.374767 -0.908048 0.186987
-0.254346 -0.050607 -0.670624 -0.249611 -0.623981 -0.740471
-0.627324 -0.117065 0.168604 -0.380169 -0.920408 0.090976
-0.137363 -0.029763 -0.713303 -0.146123 -0.383312 -0.911985
-0.639306 -0.119200 0.022286 -0.381817 -0.924223 0.000000
-0.591837 -0.071724 0.438963 -0.518509 -0.768151 0.375561
-0.655869 -0.078796 0.309298 -0.544389 -0.802484 0.244209
-0.400664 -0.050607 -0.601316 -0.410169 -0.622150 -0.666829
-0.280869 -0.037375 -0.670624 -0.311838 -0.485336 -0.816797
-0.695299 -0.083152 0.168604 -0.558275 -0.820856 0.120182
-0.150884 -0.023017 -0.713303 -0.174718 -0.286782 -0.941893
-0.708614 -0.084622 0.022286 -0.562670 -0.826655 0.000000
-0.150884 -0.023017 0.757875 -0.174718 -0.286813 0.941893
-0.695299 -0.083152 -0.124032 -0.558275 -0.820856 -0.120182
-0.280869 -0.037375 0.715195 -0.311838 -0.485336 0.816797
-0.655869 -0.078796 -0.264727 -0.544389 -0.802484 -0.244209
-0.400664 -0.050607 0.645888 -0.410169 -0.622150 0.666829
-0.591837 -0.071724 -0.394392 -0.518509 -0.768151 -0.375561
-0.505665 -0.062205 0.552616 -0.476119 -0.711539 0.516709
-0.505665 -0.062205 -0.508044 -0.476119 -0.711539 -0.516709
-0.737158 -0.046354 -0.124032 -0.816736 -0.553117 -0.164098
-0.695299 -0.044134 -0.264727 -0.780602 -0.532975 -0.326395
-0.297202 -0.023017 0.715195 -0.371105 -0.278817 0.885708
-0.424375 -0.029763 0.645888 -0.515244 -0.373730 0.771233
-0.627324 -0.040528 -0.394392 -0.719230 -0.497940 -0.484481
-0.535844 -0.035676 0.552616 -0.631184 -0.445814 0.634663
-0.535844 -0.035676 -0.508044 -0.631184 -0.445814 -0.634663
-0.627324 -0.040528 0.438963 -0.719230 -0.497940 0.484481
-0.424375 -0.029763 -0.601316 -0.515244 -0.373699 -0.771233
-0.695299 -0.044134 0.309298 -0.780602 -0.532975 0.326426
-0.297201 -0.023017 -0.670624 -0.371105 -0.278817 -0.885708
-0.737158 -0.046354 0.168604 -0.816767 -0.553117 0.164098
-0.159210 -0.015698 -0.713303 -0.201483 -0.160466 -0.966247
-0.751293 -0.047104 0.022286 -0.828669 -0.559679 0.000000
-0.159210 -0.015698 0.757875 -0.201483 -0.160466 0.966247
-0.432381 -0.008086 -0.601316 -0.570360 0.000000 -0.821375
-0.302716 -0.008086 -0.670624 -0.401135 0.000000 -0.915983
-0.708614 -0.008086 0.309298 -0.926908 0.000000 0.375195
-0.751292 -0.008086 0.168604 -0.981567 0.000000 0.191046
-0.162022 -0.008086 -0.713303 -0.216102 0.000000 -0.976348
-0.765704 -0.008086 0.022286 -1.000000 0.000000 0.000000
-0.162022 -0.008086 0.757875 -0.216102 0.000000 0.976348
-0.751292 -0.008086 -0.124032 -0.981567 0.000000 -0.191046
-0.302716 -0.008086 0.715195 -0.401135 0.000000 0.916013
-0.708614 -0.008086 -0.264727 -0.926908 0.000000 -0.375195
-0.432382 -0.008086 0.645888 -0.570360 0.000000 0.821375
-0.639306 -0.008086 -0.394392 -0.837947 0.000000 -0.545732
-0.546034 -0.008086 0.552616 -0.717673 0.000000 0.696341
-0.546034 -0.008086 -0.508044 -0.717673 0.000000 -0.696341
-0.639306 -0.008086 0.438963 -0.837947 0.000000 0.545732
-0.695299 0.027962 -0.264727 -0.780602 0.532975 -0.326426
-0.627323 0.024357 -0.394392 -0.719230 0.497940 -0.484481
-0.424375 0.013592 0.645888 -0.515244 0.373730 0.771233
-0.535844 0.019504 0.552616 -0.631214 0.445814 0.634663
-0.535844 0.019504 -0.508044 -0.631214 0.445814 -0.634663
-0.627323 0.024357 0.438963 -0.719230 0.497940 0.484481
-0.424375 0.013592 -0.601316 -0.515244 0.373699 -0.771233
-0.695299 0.027962 0.309298 -0.780602 0.532975 0.326426
-0.297201 0.006846 -0.670624 -0.371105 0.278817 -0.885708
-0.737158 0.030183 0.168604 -0.816736 0.553117 0.164098
-0.159210 -0.000474 -0.713303 -0.201483 0.160436 -0.966247
-0.751293 0.030932 0.022286 -0.828669 0.559679 0.000000
-0.159210 -0.000474 0.757875 -0.201483 0.160436 0.966247
-0.737158 0.030183 -0.124032 -0.816736 0.553117 -0.164098
-0.297202 0.006846 0.715195 -0.371105 0.278817 0.885708
-0.280869 0.021204 -0.670624 -0.311838 0.485336 -0.816797
-0.150884 0.006846 -0.713303 -0.174718 0.286782 -0.941893
-0.695299 0.066980 0.168604 -0.558275 0.820887 0.120182
-0.708613 0.068451 0.022286 -0.562670 0.826655 0.000000
-0.150884 0.006846 0.757875 -0.174718 0.286782 0.941893
-0.695299 0.066980 -0.124032 -0.558275 0.820887 -0.120182
-0.280869 0.021204 0.715195 -0.311838 0.485336 0.816797
-0.655869 0.062625 -0.264727 -0.544389 0.802484 -0.244209
-0.400664 0.034436 0.645888 -0.410169 0.622150 0.666829
-0.591837 0.055552 -0.394392 -0.518509 0.768151 -0.375561
-0.505665 0.046034 0.552616 -0.476119 0.711539 0.516709
-0.505665 0.046034 -0.508044 -0.476119 0.711539 -0.516709
-0.591837 0.055552 0.438963 -0.518509 0.768151 0.375561
-0.400664 0.034436 -0.601316 -0.410169 0.622150 -0.666829
-0.655869 0.062625 0.309298 -0.544389 0.802484 0.244209
-0.362159 0.053646 0.645888 -0.310800 0.763054 0.566637
-0.456657 0.070484 0.552616 -0.345012 0.840419 0.417890
-0.534210 0.084302 -0.394392 -0.364147 0.883816 -0.293680
-0.456657 0.070484 -0.508044 -0.345012 0.840419 -0.417890
-0.534210 0.084302 0.438963 -0.364147 0.883816 0.293680
-0.362159 0.053646 -0.601316 -0.310800 0.763054 -0.566637
-0.591837 0.094570 0.309298 -0.374767 0.908048 0.186987
-0.254346 0.034436 -0.670624 -0.249611 0.623981 -0.740471
-0.627323 0.100893 0.168604 -0.380169 0.920408 0.090976
-0.137363 0.013592 -0.713303 -0.146092 0.383312 -0.911954
-0.639306 0.103028 0.022286 -0.381817 0.924223 0.000000
-0.137363 0.013592 0.757875 -0.146092 0.383343 0.911954
-0.627323 0.100893 -0.124032 -0.380169 0.920408 -0.090976
-0.254346 0.034436 0.715195 -0.249611 0.623981 0.740471
-0.591837 0.094570 -0.264727 -0.374767 0.908048 -0.186987
-0.535843 0.130618 0.168604 -0.262886 0.961974 0.073855
-0.546034 0.133336 0.022286 -0.263588 0.964599 0.000000
-0.119166 0.019504 0.757875 -0.116703 0.455489 0.882534
-0.119166 0.019504 -0.713303 -0.116703 0.455489 -0.882534
-0.535843 0.130618 -0.124032 -0.262886 0.961974 -0.073824
-0.218652 0.046034 0.715195 -0.191412 0.713920 0.673544
-0.505665 0.122571 -0.264727 -0.260475 0.953337 -0.152562
-0.310339 0.070484 0.645888 -0.228401 0.840968 0.490432
-0.456657 0.109502 -0.394392 -0.255623 0.935972 -0.242042
-0.390704 0.091914 0.552616 -0.246406 0.903470 0.350688
-0.390704 0.091914 -0.508044 -0.246406 0.903470 -0.350688
-0.456657 0.109502 0.438963 -0.255623 0.935972 0.242042
-0.310339 0.070484 -0.601316 -0.228401 0.840999 -0.490432
-0.505665 0.122571 0.309298 -0.260475 0.953337 0.152562
-0.218652 0.046034 -0.670624 -0.191412 0.713920 -0.673544
-0.362158 0.130183 -0.394392 -0.174810 0.961882 -0.210181
-0.310339 0.109502 -0.508044 -0.170110 0.936216 -0.307382
-0.310339 0.109502 0.552616 -0.170110 0.936216 0.307382
-0.362158 0.130183 0.438963 -0.174810 0.961882 0.210181
-0.247197 0.084302 -0.601316 -0.160436 0.884701 -0.437635
-0.400664 0.145550 0.309298 -0.177190 0.975280 0.131809
-0.175159 0.055552 -0.670624 -0.138493 0.770898 -0.621693
-0.424375 0.155013 0.168604 -0.178350 0.981872 0.063631
-0.096994 0.024357 -0.713303 -0.087130 0.507370 -0.857295
-0.432381 0.158208 0.022286 -0.178716 0.983886 0.000000
-0.096994 0.024357 0.757875 -0.087130 0.507401 0.857265
-0.424375 0.155013 -0.124032 -0.178350 0.981872 -0.063631
-0.175159 0.055552 0.715195 -0.138493 0.770898 0.621693
-0.400664 0.145550 -0.264727 -0.177190 0.975280 -0.131809
-0.247197 0.084302 0.645888 -0.160436 0.884701 0.437635
-0.071697 0.027962 0.757875 -0.057802 0.542161 0.838252
-0.071697 0.027962 -0.713303 -0.057802 0.542161 -0.838252
-0.302716 0.176690 0.022286 -0.111576 0.993744 0.000000
-0.297201 0.173140 -0.124032 -0.111393 0.992096 -0.057619
-0.125539 0.062625 0.715195 -0.090030 0.805628 0.585528
-0.280869 0.162625 -0.264727 -0.110843 0.986602 -0.119480
-0.175159 0.094570 0.645888 -0.102268 0.909177 0.403577
-0.254346 0.145550 -0.394392 -0.109653 0.975433 -0.191015
-0.218652 0.122571 0.552616 -0.107303 0.953764 0.280679
-0.218652 0.122571 -0.508044 -0.107303 0.953764 -0.280679
-0.254346 0.145550 0.438963 -0.109653 0.975433 0.191015
-0.175159 0.094570 -0.601316 -0.102268 0.909177 -0.403577
-0.280869 0.162625 0.309298 -0.110843 0.986602 0.119480
-0.125539 0.062625 -0.670624 -0.090030 0.805628 -0.585528
-0.297201 0.173140 0.168604 -0.111393 0.992096 0.057619
-0.119166 0.130618 0.552616 -0.051973 0.962523 0.266121
-0.137362 0.155013 0.438963 -0.052950 0.982086 0.180700
-0.119166 0.130618 -0.508044 -0.051973 0.962523 -0.266121
-0.096994 0.100893 -0.601316 -0.049837 0.921751 -0.384503
-0.150884 0.173140 0.309298 -0.053438 0.992157 0.112918
-0.071697 0.066980 -0.670624 -0.044435 0.824488 -0.564104
-0.159210 0.184302 0.168604 -0.053682 0.997070 0.054415
-0.044249 0.030183 -0.713303 -0.028840 0.562212 -0.826472
-0.162021 0.188071 0.022286 -0.053743 0.998535 0.000000
-0.044249 0.030183 0.757875 -0.028840 0.562212 0.826472
-0.159210 0.184302 -0.124032 -0.053682 0.997070 -0.054415
-0.071697 0.066980 0.715195 -0.044435 0.824488 0.564104
-0.150884 0.173140 -0.264727 -0.053438 0.992157 -0.112918
-0.096994 0.100893 0.645888 -0.049837 0.921751 0.384503
-0.137362 0.155013 -0.394392 -0.052950 0.982086 -0.180700
3 0 1 2
3 3 4 5
3 5 6 3
3 7 8 9
3 9 10 7
3 11 3 6
3 6 12 11
3 13 7 10
3 10 14 13
3 15 11 12
3 12 16 15
3 17 13 14
3 14 18 17
3 19 15 16
3 16 20 19
3 21 17 18
3 18 22 21
3 23 19 20
3 20 24 23
3 25 21 22
3 22 26 25
3 27 23 24
3 24 28 27
3 29 25 26
3 26 30 29
3 1 27 28
3 28 2 1
3 4 29 30
3 30 5 4
3 8 31 9
3 2 28 32
3 32 33 2
3 5 30 34
3 34 35 5
3 9 31 36
3 0 2 33
3 6 5 35
3 35 37 6
3 10 9 36
3 36 38 10
3 12 6 37
3 37 39 12
3 14 10 38
3 38 40 14
3 16 12 39
3 39 41 16
3 18 14 40
3 40 42 18
3 20 16 41
3 41 43 20
3 22 18 42
3 42 44 22
3 24 20 43
3 43 45 24
3 26 22 44
3 44 46 26
3 28 24 45
3 45 32 28
3 30 26 46
3 46 34 30
3 42 40 47
3 47 48 42
3 43 41 49
3 49 50 43
3 44 42 48
3 48 51 44
3 45 43 50
3 50 52 45
3 46 44 51
3 51 53 46
3 32 45 52
3 52 54 32
3 34 46 53
3 53 55 34
3 33 32 54
3 54 56 33
3 35 34 55
3 55 57 35
3 36 31 58
3 0 33 56
3 37 35 57
3 57 59 37
3 38 36 58
3 58 60 38
3 39 37 59
3 59 61 39
3 40 38 60
3 60 47 40
3 41 39 61
3 61 49 41
3 57 55 62
3 62 63 57
3 58 31 64
3 0 56 65
3 59 57 63
3 63 66 59
3 60 58 64
3 64 67 60
3 61 59 66
3 66 68 61
3 47 60 67
3 67 69 47
3 49 61 68
3 68 70 49
3 48 47 69
3 69 71 48
3 50 49 70
3 70 72 50
3 51 48 71
3 71 73 51
3 52 50 72
3 72 74 52
3 53 51 73
3 73 75 53
3 54 52 74
3 74 76 54
3 55 53 75
3 75 62 55
3 56 54 76
3 76 65 56
3 72 70 77
3 77 78 72
3 73 71 79
3 79 80 73
3 74 72 78
3 78 81 74
3 75 73 80
3 80 82 75
3 76 74 81
3 81 83 76
3 62 75 82
3 82 84 62
3 65 76 83
3 83 85 65
3 63 62 84
3 84 86 63
3 64 31 87
3 0 65 85
3 66 63 86
3 86 88 66
3 67 64 87
3 87 89 67
3 68 66 88
3 88 90 68
3 69 67 89
3 89 91 69
3 70 68 90
3 90 77 70
3 71 69 91
3 91 79 71
3 0 85 92
3 88 86 93
3 93 94 88
3 89 87 95
3 95 96 89
3 90 88 94
3 94 97 90
3 91 89 96
3 96 98 91
3 77 90 97
3 97 99 77
3 79 91 98
3 98 100 79
3 78 77 99
3 99 101 78
3 80 79 100
3 100 102 80
3 81 78 101
3 101 103 81
3 82 80 102
3 102 104 82
3 83 81 103
3 103 105 83
3 84 82 104
3 104 106 84
3 85 83 105
3 105 92 85
3 86 84 106
3 106 93 86
3 87 31 95
3 103 101 107
3 107 108 103
3 104 102 109
3 109 110 104
3 105 103 108
3 108 111 105
3 106 104 110
3 110 112 106
3 92 105 111
3 111 113 92
3 93 106 112
3 112 114 93
3 95 31 115
3 0 92 113
3 94 93 114
3 114 116 94
3 96 95 115
3 115 117 96
3 97 94 116
3 116 118 97
3 98 96 117
3 117 119 98
3 99 97 118
3 118 120 99
3 100 98 119
3 119 121 100
3 101 99 120
3 120 107 101
3 102 100 121
3 121 109 102
3 117 115 122
3 122 123 117
3 118 116 124
3 124 125 118
3 119 117 123
3 123 126 119
3 120 118 125
3 125 127 120
3 121 119 126
3 126 128 121
3 107 120 127
3 127 129 107
3 109 121 128
3 128 130 109
3 108 107 129
3 129 131 108
3 110 109 130
3 130 132 110
3 111 108 131
3 131 133 111
3 112 110 132
3 132 134 112
3 113 111 133
3 133 135 113
3 114 112 134
3 134 136 114
3 115 31 122
3 0 113 135
3 116 114 136
3 136 124 116
3 132 130 137
3 137 138 132
3 133 131 139
3 139 140 133
3 134 132 138
3 138 141 134
3 135 133 140
3 140 142 135
3 136 134 141
3 141 143 136
3 122 31 144
3 0 135 142
3 124 136 143
3 143 145 124
3 123 122 144
3 144 146 123
3 125 124 145
3 145 147 125
3 126 123 146
3 146 148 126
3 127 125 147
3 147 149 127
3 128 126 148
3 148 150 128
3 129 127 149
3 149 151 129
3 130 128 150
3 150 137 130
3 131 129 151
3 151 139 131
3 147 145 152
3 152 153 147
3 148 146 154
3 154 155 148
3 149 147 153
3 153 156 149
3 150 148 155
3 155 157 150
3 151 149 156
3 156 158 151
3 137 150 157
3 157 159 137
3 139 151 158
3 158 160 139
3 138 137 159
3 159 161 138
3 140 139 160
3 160 162 140
3 141 138 161
3 161 163 141
3 142 140 162
3 162 164 142
3 143 141 163
3 163 165 143
3 144 31 166
3 0 142 164
3 145 143 165
3 165 152 145
3 146 144 166
3 166 154 146
3 162 160 167
3 167 168 162
3 163 161 169
3 169 170 163
3 164 162 168
3 168 171 164
3 165 163 170
3 170 172 165
3 166 31 173
3 0 164 171
3 152 165 172
3 172 174 152
3 154 166 173
3 173 175 154
3 153 152 174
3 174 176 153
3 155 154 175
3 175 177 155
3 156 153 176
3 176 178 156
3 157 155 177
3 177 179 157
3 158 156 178
3 178 180 158
3 159 157 179
3 179 181 159
3 160 158 180
3 180 167 160
3 161 159 181
3 181 169 161
3 177 175 182
3 182 183 177
3 178 176 184
3 184 185 178
3 179 177 183
3 183 186 179
3 180 178 185
3 185 187 180
3 181 179 186
3 186 188 181
3 167 180 187
3 187 189 167
3 169 181 188
3 188 190 169
3 168 167 189
3 189 191 168
3 170 169 190
3 190 192 170
3 171 168 191
3 191 193 171
3 172 170 192
3 192 194 172
3 173 31 195
3 0 171 193
3 174 172 194
3 194 196 174
3 175 173 195
3 195 182 175
3 176 174 196
3 196 184 176
3 192 190 197
3 197 198 192
3 193 191 199
3 199 200 193
3 194 192 198
3 198 201 194
3 195 31 202
3 0 193 200
3 196 194 201
3 201 203 196
3 182 195 202
3 202 204 182
3 184 196 203
3 203 205 184
3 183 182 204
3 204 206 183
3 185 184 205
3 205 207 185
3 186 183 206
3 206 208 186
3 187 185 207
3 207 209 187
3 188 186 208
3 208 210 188
3 189 187 209
3 209 211 189
3 190 188 210
3 210 197 190
3 191 189 211
3 211 199 191
3 207 205 212
3 212 213 207
3 208 206 214
3 214 215 208
3 209 207 213
3 213 216 209
3 210 208 215
3 215 217 210
3 211 209 216
3 216 218 211
3 197 210 217
3 217 219 197
3 199 211 218
3 218 220 199
3 198 197 219
3 219 221 198
3 200 199 220
3 220 222 200
3 201 198 221
3 221 223 201
3 202 31 224
3 0 200 222
3 203 201 223
3 223 225 203
3 204 202 224
3 224 226 204
3 205 203 225
3 225 212 205
3 206 204 226
3 226 214 206
3 222 220 227
3 227 228 222
3 223 221 229
3 229 230 223
3 224 31 231
3 0 222 228
3 225 223 230
3 230 232 225
3 226 224 231
3 231 233 226
3 212 225 232
3 232 234 212
3 214 226 233
3 233 235 214
3 213 212 234
3 234 236 213
3 215 214 235
3 235 237 215
3 216 213 236
3 236 238 216
3 217 215 237
3 237 239 217
3 218 216 238
3 238 240 218
3 219 217 239
3 239 241 219
3 220 218 240
3 240 227 220
3 221 219 241
3 241 229 221
3 238 236 242
3 242 243 238
3 239 237 244
3 244 245 239
3 240 238 243
3 243 246 240
3 241 239 245
3 245 247 241
3 227 240 246
3 246 248 227
3 229 241 247
3 247 249 229
3 228 227 248
3 248 250 228
3 230 229 249
3 249 251 230
3 231 31 252
3 0 228 250
3 232 230 251
3 251 253 232
3 233 231 252
3 252 254 233
3 234 232 253
3 253 255 234
3 235 233 254
3 254 256 235
3 236 234 255
3 255 242 236
3 237 235 256
3 256 244 237
3 252 31 257
3 0 250 258
3 253 251 259
3 259 260 253
3 254 252 257
3 257 261 254
3 255 253 260
3 260 262 255
3 256 254 261
3 261 263 256
3 242 255 262
3 262 264 242
3 244 256 263
3 263 265 244
3 243 242 264
3 264 266 243
3 245 244 265
3 265 267 245
3 246 243 266
3 266 268 246
3 247 245 267
3 267 269 247
3 248 246 268
3 268 270 248
3 249 247 269
3 269 271 249
3 250 248 270
3 270 258 250
3 251 249 271
3 271 259 251
3 267 265 272
3 272 273 267
3 268 266 274
3 274 275 268
3 269 267 273
3 273 276 269
3 270 268 275
3 275 277 270
3 271 269 276
3 276 278 271
3 258 270 277
3 277 279 258
3 259 271 278
3 278 280 259
3 257 31 281
3 0 258 279
3 260 259 280
3 280 282 260
3 261 257 281
3 281 283 261
3 262 260 282
3 282 284 262
3 263 261 283
3 283 285 263
3 264 262 284
3 284 286 264
3 265 263 285
3 285 272 265
3 266 264 286
3 286 274 266
3 282 280 287
3 287 288 282
3 283 281 289
3 289 290 283
3 284 282 288
3 288 291 284
3 285 283 290
3 290 292 285
3 286 284 291
3 291 293 286
3 272 285 292
3 292 294 272
3 274 286 293
3 293 295 274
3 273 272 294
3 294 296 273
3 275 274 295
3 295 297 275
3 276 273 296
3 296 298 276
3 277 275 297
3 297 299 277
3 278 276 298
3 298 300 278
3 279 277 299
3 299 301 279
3 280 278 300
3 300 287 280
3 281 31 289
3 0 279 301
3 297 295 302
3 302 303 297
3 298 296 304
3 304 305 298
3 299 297 303
3 303 306 299
3 300 298 305
3 305 307 300
3 301 299 306
3 306 308 301
3 287 300 307
3 307 309 287
3 289 31 310
3 0 301 308
3 288 287 309
3 309 311 288
3 290 289 310
3 310 312 290
3 291 288 311
3 311 313 291
3 292 290 312
3 312 314 292
3 293 291 313
3 313 315 293
3 294 292 314
3 314 316 294
3 295 293 315
3 315 302 295
3 296 294 316
3 316 304 296
3 312 310 317
3 317 318 312
3 313 311 319
3 319 320 313
3 314 312 318
3 318 321 314
3 315 313 320
3 320 322 315
3 316 314 321
3 321 323 316
3 302 315 322
3 322 324 302
3 304 316 323
3 323 325 304
3 303 302 324
3 324 326 303
3 305 304 325
3 325 327 305
3 306 303 326
3 326 328 306
3 307 305 327
3 327 329 307
3 308 306 328
3 328 330 308
3 309 307 329
3 329 331 309
3 310 31 317
3 0 308 330
3 311 309 331
3 331 319 311
3 327 325 332
3 332 333 327
3 328 326 334
3 334 335 328
3 329 327 333
3 333 336 329
3 330 328 335
3 335 337 330
3 331 329 336
3 336 338 331
3 317 31 339
3 0 330 337
3 319 331 338
3 338 340 319
3 318 317 339
3 339 341 318
3 320 319 340
3 340 342 320
3 321 318 341
3 341 343 321
3 322 320 342
3 342 344 322
3 323 321 343
3 343 345 323
3 324 322 344
3 344 346 324
3 325 323 345
3 345 332 325
3 326 324 346
3 346 334 326
3 342 340 347
3 347 348 342
3 343 341 349
3 349 350 343
3 344 342 348
3 348 351 344
3 345 343 350
3 350 352 345
3 346 344 351
3 351 353 346
3 332 345 352
3 352 354 332
3 334 346 353
3 353 355 334
3 333 332 354
3 354 356 333
3 335 334 355
3 355 357 335
3 336 333 356
3 356 358 336
3 337 335 357
3 357 359 337
3 338 336 358
3 358 360 338
3 339 31 361
3 0 337 359
3 340 338 360
3 360 347 340
3 341 339 361
3 361 349 341
3 357 355 362
3 362 363 357
3 358 356 364
3 364 365 358
3 359 357 363
3 363 366 359
3 360 358 365
3 365 367 360
3 361 31 368
3 0 359 366
3 347 360 367
3 367 369 347
3 349 361 368
3 368 370 349
3 348 347 369
3 369 371 348
3 350 349 370
3 370 372 350
3 351 348 371
3 371 373 351
3 352 350 372
3 372 374 352
3 353 351 373
3 373 375 353
3 354 352 374
3 374 376 354
3 355 353 375
3 375 362 355
3 356 354 376
3 376 364 356
3 373 371 377
3 377 378 373
3 374 372 379
3 379 380 374
3 375 373 378
3 378 381 375
3 376 374 380
3 380 382 376
3 362 375 381
3 381 383 362
3 364 376 382
3 382 384 364
3 363 362 383
3 383 385 363
3 365 364 384
3 384 386 365
3 366 363 385
3 385 387 366
3 367 365 386
3 386 388 367
3 368 31 389
3 0 366 387
3 369 367 388
3 388 390 369
3 370 368 389
3 389 391 370
3 371 369 390
3 390 377 371
3 372 370 391
3 391 379 372
3 387 385 392
3 392 393 387
3 388 386 394
3 394 395 388
3 389 31 396
3 0 387 393
3 390 388 395
3 395 397 390
3 391 389 396
3 396 398 391
3 377 390 397
3 397 399 377
3 379 391 398
3 398 400 379
3 378 377 399
3 399 401 378
3 380 379 400
3 400 402 380
3 381 378 401
3 401 403 381
3 382 380 402
3 402 404 382
3 383 381 403
3 403 405 383
3 384 382 404
3 404 406 384
3 385 383 405
3 405 392 385
3 386 384 406
3 406 394 386
3 402 400 407
3 407 408 402
3 403 401 409
3 409 410 403
3 404 402 408
3 408 411 404
3 405 403 410
3 410 412 405
3 406 404 411
3 411 413 406
3 392 405 412
3 412 414 392
3 394 406 413
3 413 415 394
3 393 392 414
3 414 416 393
3 395 394 415
3 415 417 395
3 396 31 418
3 0 393 416
3 397 395 417
3 417 419 397
3 398 396 418
3 418 420 398
3 399 397 419
3 419 421 399
3 400 398 420
3 420 407 400
3 401 399 421
3 421 409 401
3 417 415 422
3 422 423 417
3 418 31 424
3 0 416 425
3 419 417 423
3 423 426 419
3 420 418 424
3 424 427 420
3 421 419 426
3 426 428 421
3 407 420 427
3 427 429 407
3 409 421 428
3 428 430 409
3 408 407 429
3 429 431 408
3 410 409 430
3 430 432 410
3 411 408 431
3 431 433 411
3 412 410 432
3 432 434 412
3 413 411 433
3 433 435 413
3 414 412 434
3 434 436 414
3 415 413 435
3 435 422 415
3 416 414 436
3 436 425 416
3 432 430 437
3 437 438 432
3 433 431 439
3 439 440 433
3 434 432 438
3 438 441 434
3 435 433 440
3 440 442 435
3 436 434 441
3 441 443 436
3 422 435 442
3 442 444 422
3 425 436 443
3 443 445 425
3 423 422 444
3 444 446 423
3 424 31 447
3 0 425 445
3 426 423 446
3 446 448 426
3 427 424 447
3 447 449 427
3 428 426 448
3 448 450 428
3 429 427 449
3 449 451 429
3 430 428 450
3 450 437 430
3 431 429 451
3 451 439 431
3 447 31 452
3 0 445 453
3 448 446 454
3 454 455 448
3 449 447 452
3 452 456 449
3 450 448 455
3 455 457 450
3 451 449 456
3 456 458 451
3 437 450 457
3 457 459 437
3 439 451 458
3 458 460 439
3 438 437 459
3 459 461 438
3 440 439 460
3 460 462 440
3 441 438 461
3 461 463 441
3 442 440 462
3 462 464 442
3 443 441 463
3 463 465 443
3 444 442 464
3 464 466 444
3 445 443 465
3 465 453 445
3 446 444 466
3 466 454 446
3 462 460 467
3 467 468 462
3 463 461 469
3 469 470 463
3 464 462 468
3 468 471 464
3 465 463 470
3 470 472 465
3 466 464 471
3 471 473 466
3 453 465 472
3 472 474 453
3 454 466 473
3 473 475 454
3 452 31 476
3 0 453 474
3 455 454 475
3 475 477 455
3 456 452 476
3 476 478 456
3 457 455 477
3 477 479 457
3 458 456 478
3 478 480 458
3 459 457 479
3 479 481 459
3 460 458 480
3 480 467 460
3 461 459 481
3 481 469 461
3 477 475 4
3 4 3 477
3 478 476 8
3 8 7 478
3 479 477 3
3 3 11 479
3 480 478 7
3 7 13 480
3 481 479 11
3 11 15 481
3 467 480 13
3 13 17 467
3 469 481 15
3 15 19 469
3 468 467 17
3 17 21 468
3 470 469 19
3 19 23 470
3 471 468 21
3 21 25 471
3 472 470 23
3 23 27 472
3 473 471 25
3 25 29 473
3 474 472 27
3 27 1 474
3 475 473 29
3 29 4 475
3 476 31 8
3 0 474 1
