# Blender v2.79 (sub 0) OBJ File: ''
# www.blender.org
mtllib Palmleave.mtl
o palmleaf_complete
v -0.158995 0.689487 0.001803
v 0.860215 1.423476 -0.838038
v 0.898452 1.426648 -1.378123
v 0.453231 1.165506 -1.559628
v 2.270423 0.836144 -1.992155
v 4.006817 -0.407454 -3.195116
v 1.306185 1.435205 -0.795747
v 1.535232 1.278089 -0.265275
v -0.144916 0.665594 -0.034092
v -0.293427 1.434966 -1.325940
v -0.729742 1.456895 -1.645804
v -1.127147 1.199038 -1.372054
v -0.532738 0.897299 -3.147828
v -0.656093 -0.292297 -5.287539
v -0.019666 1.448335 -1.680471
v 0.547085 1.274739 -1.595586
v -0.152184 0.648285 -0.000887
v -0.992025 1.382274 -1.020097
v -1.532110 1.385446 -1.058334
v -1.713615 1.124304 -0.613113
v -2.146142 0.794942 -2.430305
v -3.349103 -0.448656 -4.166698
v -0.949734 1.394003 -1.466067
v -0.419262 1.236887 -1.695114
v -0.037040 0.696153 0.001064
v -1.328889 1.465526 0.149575
v -1.648753 1.487454 0.585890
v -1.375002 1.229597 0.983295
v -3.150777 0.927858 0.388886
v -5.290487 -0.261738 0.512242
v -1.683419 1.478894 -0.124185
v -1.598535 1.305299 -0.690937
v -0.240543 0.726216 -0.214318
v -0.092032 1.495589 1.077531
v 0.344283 1.517517 1.397395
v 0.741688 1.259660 1.123644
v 0.147280 0.957921 2.899419
v 0.270636 -0.231675 5.039129
v -0.365792 1.508957 1.432062
v -0.932544 1.335362 1.347177
v -0.242493 0.678348 -0.099174
v -1.261703 1.412337 0.740667
v -1.299940 1.415509 1.280752
v -0.854719 1.154367 1.462257
v -2.671911 0.825005 1.894784
v -4.408305 -0.418593 3.097745
v -1.707674 1.424066 0.698376
v -1.936720 1.266950 0.167904
v -0.284021 0.819901 -0.402342
v 0.750496 1.385492 0.542510
v 1.287239 1.318339 0.518799
v 1.383509 1.060929 0.045689
v 1.963159 0.581380 1.786891
v 3.172916 -0.896649 3.323326
v 0.758663 1.378233 0.990501
v 0.240081 1.277174 1.272295
v -0.190382 0.881666 -0.232831
v 1.152299 1.488625 0.101345
v 1.595878 1.493638 -0.209101
v 1.439466 1.294388 -0.694070
v 2.889259 0.738938 0.395571
v 4.821379 -0.702928 0.839027
v 1.399449 1.442219 0.472261
v 1.119627 1.250216 0.965600
vn -0.6045 0.7957 -0.0381
vn -0.5217 0.8513 0.0550
vn -0.0654 0.6423 -0.7637
vn -0.0638 0.6464 -0.7603
vn 0.6359 0.7605 0.1317
vn 0.5642 0.8257 0.0009
vn -0.2207 0.8512 0.4761
vn -0.0539 0.9509 0.3049
vn 0.2996 -0.9390 -0.1688
vn -0.2661 -0.9154 0.3021
vn 0.4080 0.9123 0.0342
vn 0.0177 0.8997 -0.4362
vn -0.3343 0.7923 0.5103
vn -0.2101 0.8453 0.4912
vn -0.6645 0.6676 -0.3359
vn -0.6607 0.6716 -0.3353
vn 0.4695 0.7599 -0.4495
vn 0.3224 0.8290 -0.4569
vn 0.3066 0.8329 0.4608
vn 0.2532 0.9395 0.2309
vn -0.0068 -0.9306 -0.3660
vn 0.0905 -0.9270 0.3640
vn 0.2695 0.9134 -0.3050
vn -0.3367 0.9142 -0.2256
vn -0.0381 0.7957 0.6045
vn 0.0550 0.8513 0.5217
vn -0.7637 0.6423 0.0654
vn -0.7603 0.6464 0.0638
vn 0.1317 0.7605 -0.6359
vn 0.0009 0.8257 -0.5642
vn 0.4761 0.8512 0.2207
vn 0.3049 0.9509 0.0539
vn -0.1688 -0.9390 -0.2996
vn 0.3021 -0.9154 0.2661
vn 0.0342 0.9123 -0.4080
vn -0.4362 0.8997 -0.0177
vn 0.5103 0.7923 0.3343
vn 0.4912 0.8453 0.2101
vn -0.3359 0.6676 0.6645
vn -0.3353 0.6716 0.6607
vn -0.4495 0.7599 -0.4695
vn -0.4569 0.8290 -0.3224
vn 0.4608 0.8329 -0.3066
vn 0.2309 0.9395 -0.2532
vn -0.3660 -0.9306 0.0068
vn 0.3640 -0.9270 -0.0905
vn -0.3050 0.9134 -0.2695
vn -0.2256 0.9142 0.3367
vn 0.3343 0.7923 -0.5103
vn 0.2101 0.8453 -0.4912
vn 0.6645 0.6676 0.3359
vn 0.6607 0.6716 0.3353
vn -0.4695 0.7599 0.4495
vn -0.3224 0.8290 0.4569
vn -0.3066 0.8329 -0.4608
vn -0.2532 0.9395 -0.2309
vn 0.0068 -0.9306 0.3660
vn -0.0905 -0.9270 -0.3640
vn -0.2695 0.9134 0.3050
vn 0.3367 0.9142 0.2256
vn 0.6045 0.7957 0.0381
vn 0.5217 0.8513 -0.0550
vn 0.0654 0.6423 0.7637
vn 0.0638 0.6464 0.7603
vn -0.6359 0.7605 -0.1317
vn -0.5642 0.8256 -0.0009
vn 0.2207 0.8512 -0.4761
vn 0.0539 0.9509 -0.3049
vn -0.2996 -0.9390 0.1688
vn 0.2661 -0.9154 -0.3021
vn -0.4080 0.9123 -0.0342
vn -0.0177 0.8997 0.4362
vn 0.0768 0.8162 -0.5727
vn 0.0014 0.8785 -0.4777
vn 0.8300 0.5432 -0.1267
vn 0.8274 0.5477 -0.1246
vn 0.0391 0.7353 0.6766
vn 0.1688 0.7873 0.5930
vn -0.3811 0.9153 -0.1307
vn -0.1812 0.9833 0.0192
vn 0.0752 -0.9677 0.2407
vn -0.4470 -0.8541 -0.2661
vn 0.1305 0.8858 0.4453
vn 0.5501 0.8351 0.0035
vn -0.2918 0.8674 -0.4030
vn -0.3084 0.9107 -0.2747
vn 0.5981 0.6549 -0.4620
vn 0.5968 0.6587 -0.4582
vn 0.3501 0.6704 0.6542
vn 0.4115 0.7459 0.5237
vn -0.4470 0.8665 0.2221
vn -0.2025 0.9460 0.2533
vn 0.2514 -0.9676 0.0227
vn -0.4667 -0.8771 -0.1133
vn 0.2941 0.8516 0.4339
vn 0.4142 0.8953 -0.1640
usemtl None
s off
f 1//1 2//1 3//1
f 3//2 4//2 1//2
f 4//3 3//3 5//3
f 5//4 6//4 4//4
f 6//5 5//5 7//5
f 7//6 8//6 6//6
f 2//7 1//7 8//7
f 8//8 7//8 2//8
f 8//9 1//9 4//9
f 4//10 6//10 8//10
f 5//11 3//11 2//11
f 2//12 7//12 5//12
f 9//13 10//13 11//13
f 11//14 12//14 9//14
f 12//15 11//15 13//15
f 13//16 14//16 12//16
f 14//17 13//17 15//17
f 15//18 16//18 14//18
f 10//19 9//19 16//19
f 16//20 15//20 10//20
f 16//21 9//21 12//21
f 12//22 14//22 16//22
f 13//23 11//23 10//23
f 10//24 15//24 13//24
f 17//25 18//25 19//25
f 19//26 20//26 17//26
f 20//27 19//27 21//27
f 21//28 22//28 20//28
f 22//29 21//29 23//29
f 23//30 24//30 22//30
f 18//31 17//31 24//31
f 24//32 23//32 18//32
f 24//33 17//33 20//33
f 20//34 22//34 24//34
f 21//35 19//35 18//35
f 18//36 23//36 21//36
f 25//37 26//37 27//37
f 27//38 28//38 25//38
f 28//39 27//39 29//39
f 29//40 30//40 28//40
f 30//41 29//41 31//41
f 31//42 32//42 30//42
f 26//43 25//43 32//43
f 32//44 31//44 26//44
f 32//45 25//45 28//45
f 28//46 30//46 32//46
f 29//47 27//47 26//47
f 26//48 31//48 29//48
f 33//49 34//49 35//49
f 35//50 36//50 33//50
f 36//51 35//51 37//51
f 37//52 38//52 36//52
f 38//53 37//53 39//53
f 39//54 40//54 38//54
f 34//55 33//55 40//55
f 40//56 39//56 34//56
f 40//57 33//57 36//57
f 36//58 38//58 40//58
f 37//59 35//59 34//59
f 34//60 39//60 37//60
f 41//61 42//61 43//61
f 43//62 44//62 41//62
f 44//63 43//63 45//63
f 45//64 46//64 44//64
f 46//65 45//65 47//65
f 47//66 48//66 46//66
f 42//67 41//67 48//67
f 48//68 47//68 42//68
f 48//69 41//69 44//69
f 44//70 46//70 48//70
f 45//71 43//71 42//71
f 42//72 47//72 45//72
f 49//73 50//73 51//73
f 51//74 52//74 49//74
f 52//75 51//75 53//75
f 53//76 54//76 52//76
f 54//77 53//77 55//77
f 55//78 56//78 54//78
f 50//79 49//79 56//79
f 56//80 55//80 50//80
f 56//81 49//81 52//81
f 52//82 54//82 56//82
f 53//83 51//83 50//83
f 50//84 55//84 53//84
f 57//85 58//85 59//85
f 59//86 60//86 57//86
f 60//87 59//87 61//87
f 61//88 62//88 60//88
f 62//89 61//89 63//89
f 63//90 64//90 62//90
f 58//91 57//91 64//91
f 64//92 63//92 58//92
f 64//93 57//93 60//93
f 60//94 62//94 64//94
f 61//95 59//95 58//95
f 58//96 63//96 61//96
